PathFileType	4	(X/Y/Z)	C:/Users/beibeiliu/ov580/test_trc/User2\sequence.40_training_dense_right.trc
DataRate	CameraRate	NumFrames	NumMarkers	Units	OrigDataRate	OrigDataStartFrame	OrigNumFrames
120	120	20	19	mm	120	170	198
Frame#	Time	ThumbCMC			ThumbMCP			ThumbIP			ThumbTip			IndexMCP			IndexPIP			IndexTip			MiddleMCP			MiddlePIP			MiddleTip			RingMCP			RingPIP			RingTip			PinkyMCP			PinkyPIP			PinkyTip			BackHand1			BackHand2			BackHand3	
		X0	Y0	Z0	X1	Y1	Z1	X2	Y2	Z2	X3	Y3	Z3	X4	Y4	Z4	X5	Y5	Z5	X6	Y6	Z6	X7	Y7	Z7	X8	Y8	Z8	X9	Y9	Z9	X10	Y10	Z10	X11	Y11	Z11	X12	Y12	Z12	X13	Y13	Z13	X14	Y14	Z14	X15	Y15	Z15	X16	Y16	Z16	X17	Y17	Z17	X18	Y18	Z18	
169	1.40833	107.002	52.6439	-2.64878	78.0639	78.3578	-13.5962	50.3378	92.5678	-26.597	23.4616	99.3594	-37.8331	81.1267	38.2944	-85.0129	69.1273	51.8642	-104.948	48.255	69.7994	-117.419	65.8711	17.8815	-83.1398	40.4149	33.2808	-109.19	12.4701	55.5257	-113.02	37.5202	10.1374	-66.1893	11.8992	26.0746	-81.661	-7.72754	51.242	-85.4325	20.3966	-0.415558	-42.5488	1.01948	10.4021	-50.8857	-20.543	29.2155	-63.9081	76.103	-12.1809	-25.0606	95.6212	-15.7154	6.07078	109.973	9.12485	-17.3035	
170	1.41667	102.723	51.6302	-4.24268	75.3742	78.9816	-12.0809	44.2086	92.465	-28.7054	21.5323	90.3726	-34.3844	82.3886	36.9833	-80.16	66.3393	48.8827	-102.971	38.7487	70.9895	-114.173	61.8071	14.9245	-81.4023	36.547	33.8403	-105.749	8.29843	57.6973	-100.702	36.7735	12.578	-64.7364	12.3973	27.1405	-73.935	-9.11546	56.042	-69.8694	22.7704	0.333943	-41.0587	-1.50162	16.3241	-51.3973	-22.5487	34.8761	-56.1276	74.7147	-10.7319	-23.3753	94.9566	-17.236	5.09549	108.776	8.29324	-15.4879	
171	1.425	103.199	54.4803	-4.50226	74.7779	74.8545	-11.5566	42.5535	86.344	-27.898	18.448	85.0038	-35.8215	82.0449	36.2841	-81.8664	62.7188	48.231	-104.445	36.886	69.7504	-108.532	60.2992	15.3283	-83.9148	31.7367	31.2049	-101.592	7.22898	58.8314	-91.1894	33.6546	11.2834	-61.1102	9.85195	34.9222	-69.6979	-7.74849	62.2556	-57.1658	21.0161	1.24219	-42.4443	0.990967	16.1071	-48.5267	-19.2607	40.9202	-53.5874	77.4299	-10.056	-22.1929	92.536	-17.7006	4.41739	112.384	10.2902	-17.32	
172	1.43333	101.588	52.6023	-4.37917	73.2953	75.9305	-12.8031	41.2188	90.1787	-28.969	15.9435	80.8302	-38.4146	83.682	36.573	-80.5852	62.8196	51.0615	-105.254	34.3727	71.2955	-105.502	62.5001	17.3024	-83.7424	33.3048	35.7937	-101.838	9.45188	58.0642	-85.1541	32.3602	15.2579	-63.2192	9.33305	33.1557	-66.4439	-1.13033	64.4533	-52.8339	21.6277	-0.134472	-37.8085	-2.18292	19.5933	-47.1009	-15.1373	45.2636	-50.9551	76.1152	-10.1989	-23.5463	93.5386	-16.2268	3.85984	109.147	7.74055	-16.9491	
173	1.44167	101.891	51.1057	-3.61497	73.0005	74.3244	-13.0394	41.6842	89.5329	-29.6187	14.0019	80.8547	-39.4245	82.401	36.8985	-84.3034	61.4102	47.0055	-105.143	32.1026	66.5348	-102.981	59.7589	14.0499	-83.4649	32.8418	32.8523	-101.719	10.2051	59.4148	-81.7815	33.176	14.0899	-62.6759	10.4205	36.3449	-66.5564	-1.35758	65.1919	-48.1255	21.6138	1.10825	-38.8147	2.24622	20.6309	-47.9162	-15.1042	44.0468	-52.2313	76.9747	-9.60678	-21.8919	94.8226	-19.0019	4.75033	111.587	11.7141	-19.8905	
174	1.45	103.533	52.7009	-3.50318	71.3528	75.1465	-16.0461	43.759	88.2399	-27.1919	14.2739	83.3372	-39.1126	82.1408	35.9712	-84.7441	62.2615	48.2951	-105.836	31.8111	68.4243	-103.047	60.2583	12.8663	-82.0689	33.8267	28.9888	-100.713	12.1604	60.1856	-85.2368	33.1586	12.4886	-63.5462	6.59573	37.1486	-66.4049	-3.68054	63.1039	-48.8408	21.8548	3.04817	-41.2305	1.07949	21.0692	-47.3704	-14.9516	45.9276	-51.3236	78.0051	-11.6655	-24.9819	92.7647	-19.5614	5.44324	110.293	10.2539	-18.2308	
175	1.45833	102.875	52.7043	-5.22502	71.9196	75.8411	-16.0273	43.2829	90.9192	-29.9813	18.4509	82.9484	-36.5633	81.997	34.7221	-82.893	61.9023	46.8673	-106.728	34.5014	70.6584	-104.299	63.1231	14.5992	-83.6004	32.3506	32.3074	-103.967	10.312	54.5319	-86.4278	32.6447	11.9546	-65.888	9.34253	33.837	-70.9708	-1.31635	58.6141	-57.3484	19.148	2.7273	-42.9882	0.491579	21.7312	-49.9002	-17.7899	39.7799	-51.9095	76.9739	-13.6442	-22.5992	94.5755	-16.2039	5.1157	110.023	8.16288	-21.2283	
176	1.46667	103.592	52.1402	-4.96242	73.8772	76.0067	-15.8045	43.9563	93.0357	-30.2024	18.9411	84.6285	-37.3809	80.6356	33.434	-85.0266	63.6271	48.3656	-107.958	38.4309	68.5416	-106.717	62.0481	12.8372	-86.4838	35.4287	29.5801	-105.829	10.5117	54.6257	-91.5295	37.5242	10.6975	-70.977	15.4941	25.8027	-78.9922	-4.89717	55.2396	-68.0256	22.3153	0.145127	-43.2254	-1.48587	13.8612	-48.0792	-18.8332	33.6581	-52.6825	74.9986	-10.5122	-26.612	95.0765	-17.871	4.49522	109.241	10.5976	-20.5256	
177	1.475	105.129	54.2888	-3.99907	74.7105	79.335	-13.4696	44.0572	90.1436	-29.563	18.2998	94.6209	-37.8311	85.0969	36.8039	-86.6463	60.7592	47.2028	-107.826	37.5289	67.4378	-106.588	66.0265	12.2398	-83.744	40.1503	30.4915	-109.781	11.6479	56.3541	-100.208	40.243	2.78952	-69.7833	17.2306	16.5845	-85.4923	-2.84465	44.5079	-84.4424	23.9634	-3.73276	-41.5038	3.27794	8.94083	-54.2276	-17.7134	29.6064	-62.1659	80.1193	-10.993	-23.2767	95.0501	-19.2015	4.49664	113.121	10.1155	-19.962	
178	1.48333	104.437	51.9704	-4.35575	72.2571	78.7434	-16.2352	44.3053	95.9594	-28.4506	18.4803	95.7847	-38.2542	86.2643	36.6427	-83.9303	64.4623	46.7829	-108.37	37.0861	69.124	-107.517	68.2474	14.2292	-85.6688	45.4856	27.0925	-111.704	13.319	54.5937	-109.003	45.0778	3.20467	-75.3293	21.1952	10.3375	-90.0615	-0.349237	34.0913	-95.9337	28.7595	-3.79199	-45.8011	4.77388	5.6124	-58.5409	-17.169	17.697	-67.0551	78.9068	-9.08831	-25.5965	93.7963	-19.3377	1.34279	109.249	9.61478	-20.7949	
179	1.49167	103.275	53.7729	-7.4111	73.0245	76.5346	-14.2158	45.595	91.262	-24.9229	19.1194	92.6048	-35.7634	82.7282	34.4509	-88.1963	65.692	50.5929	-109.002	38.2974	64.7706	-106.759	69.9391	14.2757	-85.9284	45.7884	24.622	-111.729	16.5411	48.8028	-116.208	45.1236	0.0323102	-73.6454	25.4161	12.2698	-94.7921	1.36758	33.2877	-103.322	26.506	-2.36976	-50.0732	6.07878	5.90257	-60.4784	-17.7312	18.158	-71.1087	77.9866	-10.8897	-24.6853	93.518	-18.7983	3.68757	111.617	9.8609	-20.9684	
180	1.5	103.205	51.9462	-5.37456	74.4657	77.8598	-11.7132	43.123	90.5786	-27.2387	17.0218	95.1667	-36.5415	84.5076	34.3862	-82.8523	62.4161	47.8691	-108.127	38.4962	69.8213	-107.291	69.0554	16.1049	-87.9078	48.2016	29.091	-113.313	17.9396	49.9188	-119.721	49.2415	4.45384	-73.9803	22.7036	12.7928	-95.3386	3.84097	31.6058	-103.999	29.4411	-2.28345	-46.8669	4.52477	8.90614	-60.688	-16.5623	24.6503	-68.018	76.5742	-12.198	-28.3695	95.8685	-20.1031	4.13743	112.594	8.91297	-20.5316	
181	1.50833	102.629	53.7595	-6.57666	72.4854	78.2233	-14.4656	43.6355	90.621	-25.6729	16.8127	88.0114	-36.3556	85.6854	36.8924	-84.3637	62.5683	49.8618	-107.517	38.61	68.902	-104.205	69.3855	15.0656	-85.3199	47.7825	28.6678	-113.464	20.9967	53.8457	-121.698	46.0676	1.5497	-71.4155	22.3179	13.2058	-92.5826	5.2	37.4437	-102.294	25.4068	-0.106289	-48.2751	4.58886	17.2165	-59.748	-11.5359	33.8189	-65.6537	81.8447	-8.45367	-25.6518	96.6232	-17.0019	0.84622	110.719	10.7534	-19.245	
182	1.51667	104.436	55.6483	-5.87971	73.4386	76.7274	-12.5141	38.6127	89.1583	-31.2541	13.1513	81.9009	-39.8595	84.7233	37.3179	-87.5672	61.606	48.4683	-106.826	37.0058	67.2679	-100.931	71.0959	17.0573	-84.6343	48.0278	26.9449	-111.44	20.8701	56.1952	-120.221	48.9333	4.78526	-71.4574	21.7492	15.5993	-92.0014	-0.278476	40.5884	-94.2197	25.6047	2.57724	-49.7012	5.99011	23.8134	-57.6436	-7.37827	44.8464	-58.4722	80.1598	-9.30867	-29.2866	94.6228	-18.1124	3.88953	113.925	11.0113	-21.5438	
183	1.525	103.229	52.1857	-5.62849	71.1054	75.932	-15.309	40.1095	87.8409	-30.0684	12.7459	78.9248	-40.0193	83.6988	33.8342	-82.2698	63.1257	49.4314	-106	38.6419	70.2579	-100.894	67.935	14.4558	-84.6667	45.2973	28.4077	-112.901	17.2148	53.8321	-115.149	44.038	3.8826	-74.433	19.9082	19.3624	-90.1596	2.06787	45.2472	-88.6481	25.8828	3.07786	-45.0749	4.86014	27.0743	-53.1706	-2.54655	57.084	-47.909	79.655	-10.1846	-27.3476	95.5784	-17.6765	4.38933	112.902	12.0561	-22.5559	
184	1.53333	103.006	54.7135	-8.2826	70.2048	73.9545	-17.583	37.9555	85.0014	-31.3366	14.1622	73.8187	-38.647	83.2192	36.3358	-85.4304	58.8633	49.2977	-105.897	35.2321	68.716	-97.3351	66.7285	14.8344	-86.601	44.5147	26.2715	-109.531	15.4447	55.7473	-113.434	44.9832	5.54374	-70.7817	21.3835	21.2605	-88.8484	0.455333	47.9512	-82.6051	28.1317	6.39978	-45.2111	2.53	28.7173	-49.3859	-2.62712	55.8856	-38.8645	79.5838	-7.53636	-25.4604	96.835	-14.7545	0.969006	111.256	12.2479	-20.7346	
185	1.54167	102.828	53.0545	-5.42681	71.5056	77.9583	-14.4851	38.766	82.6419	-28.7011	12.2736	73.1142	-37.6795	80.0104	35.3284	-86.3626	59.2456	47.1384	-105.344	30.9398	70.6731	-92.9296	66.878	17.2342	-88.8308	39.3269	29.6205	-109.804	15.1808	54.4291	-108.513	40.646	5.79691	-73.4358	18.9554	17.4296	-85.4901	2.38371	49.8484	-81.29	27.886	6.37009	-44.8293	3.72193	31.9688	-49.4259	-1.11791	55.7694	-36.0594	77.6584	-7.60037	-27.6735	95.1414	-15.7862	5.88061	112.37	12.0189	-19.7086	
186	1.55	103.023	52.9045	-4.9791	70.1979	77.5636	-15.859	36.457	82.2112	-30.538	11.1642	73.9196	-37.6887	79.7969	34.9073	-83.388	55.0505	48.5392	-104.283	30.5258	69.5595	-92.3615	64.5851	15.6999	-84.8259	39.9276	28.4109	-108.662	10.0521	58.0687	-103.374	38.616	3.80044	-71.7389	16.3994	19.1431	-83.9007	1.30703	50.0249	-77.97	20.5359	4.73851	-44.5097	4.83794	32.0485	-48.8903	-0.436623	57.5825	-38.2065	77.4016	-8.35129	-24.7158	93.5957	-18.0724	3.74221	109.21	11.2065	-25.068	
187	1.55833	102.979	52.4138	-4.85653	69.241	74.2839	-16.6568	37.3368	85.3407	-28.1417	10.0641	77.1649	-37.2464	76.1668	31.3233	-81.9714	52.0327	48.6728	-105.501	27.824	66.8831	-93.2623	60.8152	14.1126	-83.8334	33.7887	31.787	-107.542	7.7376	57.372	-97.2976	38.3457	4.69425	-72.0202	17.268	20.1566	-84.2343	-1.05996	51.9997	-74.31	18.4192	5.80094	-44.2289	-0.94489	31.9295	-45.9424	-4.60096	60.1533	-35.7788	74.9808	-12.4687	-23.4075	92.6397	-17.2726	1.33423	107.707	11.1227	-24.2947	
188	1.56667	102.669	52.6433	-4.62551	70.8487	79.1314	-15.0846	36.4231	84.1935	-31.0135	10.6264	77.9955	-38.3333	78.2406	34.061	-84.9668	52.0539	47.2961	-103.315	28.4425	66.4865	-93.3097	61.9361	14.6301	-86.9461	33.4582	25.4063	-104.352	7.40348	57.5531	-93.7762	41.4153	6.09197	-70.9622	15.7352	19.3152	-83.4245	-2.01422	49.986	-72.7611	25.0555	6.32012	-44.3105	2.78022	31.6289	-48.8486	-3.58365	60.0809	-38.8467	76.8892	-10.2235	-21.5388	95.083	-15.6853	0.135521	109.096	8.39956	-19.7031	
